<svg xmlns="http://www.w3.org/2000/svg" width="400" height="943.281" viewBox="45.63671875 45.578125 328.8125 851.91796875">  <path d="M352.274 45.911c-5.951 2.201-19.913 4.394-29.995 4.71l-4.241.134v7.089l1.89.004c9.798.021 14.85 4.335 15.879 13.56.316 2.834.306 473.897-.01 476.821-.924 8.545-4.912 12.065-14.233 12.56l-2.504.133v6.886H374.451v-6.95h-1.385c-8.302 0-13.165-3.052-14.752-9.26-.845-3.301-.827 2.255-.827-256.095l-.001-249.923-2.197.014c-1.401.01-2.494.124-3.015.317M237.841 223.008c-18.029 2.494-27.991 21.156-19.904 37.287 9.652 19.251 37.079 19.493 46.439.41 9.469-19.307-5.522-40.603-26.535-37.697m16.426 141.656c-8.718 2.634-18.567 4.137-30.097 4.593l-3.22.127v6.906l1.074.001c9.357.005 14.989 4.324 16.529 12.677.493 2.674.413 406.933-.081 411.204-5.202 44.924-40.914 77.329-85.278 77.38-21.132.025-38.166-6.503-55.422-21.24-17.19-14.681-25.465-30.214-26.35-49.465-.628-13.646 3.511-19.838 18.086-27.055 14.313-7.088 18.277-11.854 18.298-21.999.034-16.644-13.818-28.844-29.691-26.148-20.188 3.43-33.833 27.694-32.368 57.56 3.457 70.476 63.97 119.92 129.623 105.911 43.115-9.199 77.184-45.075 83.825-88.269 1.179-7.664 1.077 12.374 1.145-225.294l.061-217.322-2.403.016c-1.765.011-2.756.122-3.731.417" fill="#fff" fill-rule="evenodd"></path></svg>